<mxfile host="app.diagrams.net" modified="2023-11-14T19:58:59.321Z" agent="Mozilla/5.0 (Windows NT 10.0; Win64; x64) AppleWebKit/537.36 (KHTML, like Gecko) Chrome/119.0.0.0 Safari/537.36" etag="DpQlEPWBYpTheOGyeqD5" version="22.1.1" type="device">
  <diagram id="R2lEEEUBdFMjLlhIrx00" name="Page-1">
    <mxGraphModel dx="2250" dy="712" grid="1" gridSize="10" guides="1" tooltips="1" connect="1" arrows="1" fold="1" page="1" pageScale="1" pageWidth="850" pageHeight="1100" math="0" shadow="0" extFonts="Permanent Marker^https://fonts.googleapis.com/css?family=Permanent+Marker">
      <root>
        <mxCell id="0" />
        <mxCell id="1" parent="0" />
        <mxCell id="92onyzxcngeXEMsaiNaI-21" value="User" style="rounded=0;whiteSpace=wrap;html=1;" parent="1" vertex="1">
          <mxGeometry x="220" y="280" width="120" height="60" as="geometry" />
        </mxCell>
        <mxCell id="92onyzxcngeXEMsaiNaI-22" value="Age" style="ellipse;whiteSpace=wrap;html=1;" parent="1" vertex="1">
          <mxGeometry x="425" y="270" width="80" height="50" as="geometry" />
        </mxCell>
        <mxCell id="92onyzxcngeXEMsaiNaI-23" value="Password" style="ellipse;whiteSpace=wrap;html=1;" parent="1" vertex="1">
          <mxGeometry x="425" y="190" width="80" height="50" as="geometry" />
        </mxCell>
        <mxCell id="92onyzxcngeXEMsaiNaI-24" value="Name" style="ellipse;whiteSpace=wrap;html=1;" parent="1" vertex="1">
          <mxGeometry x="60" y="190" width="80" height="50" as="geometry" />
        </mxCell>
        <mxCell id="92onyzxcngeXEMsaiNaI-25" value="ID" style="ellipse;whiteSpace=wrap;html=1;" parent="1" vertex="1">
          <mxGeometry x="140" y="130" width="80" height="50" as="geometry" />
        </mxCell>
        <mxCell id="92onyzxcngeXEMsaiNaI-26" value="Email" style="ellipse;whiteSpace=wrap;html=1;" parent="1" vertex="1">
          <mxGeometry x="240" y="130" width="80" height="50" as="geometry" />
        </mxCell>
        <mxCell id="92onyzxcngeXEMsaiNaI-27" value="Address" style="ellipse;whiteSpace=wrap;html=1;" parent="1" vertex="1">
          <mxGeometry x="60" y="270" width="80" height="50" as="geometry" />
        </mxCell>
        <mxCell id="92onyzxcngeXEMsaiNaI-28" value="Username" style="ellipse;whiteSpace=wrap;html=1;" parent="1" vertex="1">
          <mxGeometry x="345" y="130" width="80" height="50" as="geometry" />
        </mxCell>
        <mxCell id="92onyzxcngeXEMsaiNaI-29" value="" style="endArrow=none;html=1;rounded=0;exitX=0;exitY=0.5;exitDx=0;exitDy=0;entryX=1;entryY=0.5;entryDx=0;entryDy=0;" parent="1" source="92onyzxcngeXEMsaiNaI-21" target="92onyzxcngeXEMsaiNaI-27" edge="1">
          <mxGeometry width="50" height="50" relative="1" as="geometry">
            <mxPoint x="420" y="270" as="sourcePoint" />
            <mxPoint x="470" y="220" as="targetPoint" />
          </mxGeometry>
        </mxCell>
        <mxCell id="92onyzxcngeXEMsaiNaI-30" value="" style="endArrow=none;html=1;rounded=0;exitX=0;exitY=0.25;exitDx=0;exitDy=0;entryX=1;entryY=1;entryDx=0;entryDy=0;" parent="1" source="92onyzxcngeXEMsaiNaI-21" target="92onyzxcngeXEMsaiNaI-24" edge="1">
          <mxGeometry width="50" height="50" relative="1" as="geometry">
            <mxPoint x="420" y="270" as="sourcePoint" />
            <mxPoint x="470" y="220" as="targetPoint" />
          </mxGeometry>
        </mxCell>
        <mxCell id="92onyzxcngeXEMsaiNaI-31" value="" style="endArrow=none;html=1;rounded=0;exitX=1;exitY=0.5;exitDx=0;exitDy=0;entryX=0;entryY=0.5;entryDx=0;entryDy=0;" parent="1" source="92onyzxcngeXEMsaiNaI-21" target="92onyzxcngeXEMsaiNaI-22" edge="1">
          <mxGeometry width="50" height="50" relative="1" as="geometry">
            <mxPoint x="420" y="270" as="sourcePoint" />
            <mxPoint x="470" y="220" as="targetPoint" />
          </mxGeometry>
        </mxCell>
        <mxCell id="92onyzxcngeXEMsaiNaI-32" value="" style="endArrow=none;html=1;rounded=0;exitX=1;exitY=0.25;exitDx=0;exitDy=0;entryX=0;entryY=1;entryDx=0;entryDy=0;" parent="1" source="92onyzxcngeXEMsaiNaI-21" target="92onyzxcngeXEMsaiNaI-23" edge="1">
          <mxGeometry width="50" height="50" relative="1" as="geometry">
            <mxPoint x="420" y="270" as="sourcePoint" />
            <mxPoint x="470" y="220" as="targetPoint" />
          </mxGeometry>
        </mxCell>
        <mxCell id="92onyzxcngeXEMsaiNaI-33" value="" style="endArrow=none;html=1;rounded=0;exitX=0.75;exitY=0;exitDx=0;exitDy=0;entryX=0.5;entryY=1;entryDx=0;entryDy=0;" parent="1" source="92onyzxcngeXEMsaiNaI-21" target="92onyzxcngeXEMsaiNaI-28" edge="1">
          <mxGeometry width="50" height="50" relative="1" as="geometry">
            <mxPoint x="420" y="270" as="sourcePoint" />
            <mxPoint x="470" y="220" as="targetPoint" />
          </mxGeometry>
        </mxCell>
        <mxCell id="92onyzxcngeXEMsaiNaI-34" value="" style="endArrow=none;html=1;rounded=0;exitX=0.5;exitY=0;exitDx=0;exitDy=0;entryX=0.5;entryY=1;entryDx=0;entryDy=0;" parent="1" source="92onyzxcngeXEMsaiNaI-21" target="92onyzxcngeXEMsaiNaI-26" edge="1">
          <mxGeometry width="50" height="50" relative="1" as="geometry">
            <mxPoint x="420" y="270" as="sourcePoint" />
            <mxPoint x="470" y="220" as="targetPoint" />
          </mxGeometry>
        </mxCell>
        <mxCell id="92onyzxcngeXEMsaiNaI-35" value="" style="endArrow=none;html=1;rounded=0;exitX=0.25;exitY=0;exitDx=0;exitDy=0;entryX=0.5;entryY=1;entryDx=0;entryDy=0;" parent="1" source="92onyzxcngeXEMsaiNaI-21" target="92onyzxcngeXEMsaiNaI-25" edge="1">
          <mxGeometry width="50" height="50" relative="1" as="geometry">
            <mxPoint x="420" y="270" as="sourcePoint" />
            <mxPoint x="470" y="220" as="targetPoint" />
          </mxGeometry>
        </mxCell>
        <mxCell id="92onyzxcngeXEMsaiNaI-37" value="FirstName" style="ellipse;whiteSpace=wrap;html=1;" parent="1" vertex="1">
          <mxGeometry x="-20" y="120" width="80" height="50" as="geometry" />
        </mxCell>
        <mxCell id="92onyzxcngeXEMsaiNaI-38" value="LastName" style="ellipse;whiteSpace=wrap;html=1;" parent="1" vertex="1">
          <mxGeometry x="-70" y="190" width="80" height="50" as="geometry" />
        </mxCell>
        <mxCell id="92onyzxcngeXEMsaiNaI-40" value="" style="endArrow=none;html=1;rounded=0;exitX=0;exitY=0.5;exitDx=0;exitDy=0;entryX=1;entryY=0.5;entryDx=0;entryDy=0;" parent="1" source="92onyzxcngeXEMsaiNaI-24" target="92onyzxcngeXEMsaiNaI-38" edge="1">
          <mxGeometry width="50" height="50" relative="1" as="geometry">
            <mxPoint x="420" y="270" as="sourcePoint" />
            <mxPoint x="470" y="220" as="targetPoint" />
          </mxGeometry>
        </mxCell>
        <mxCell id="92onyzxcngeXEMsaiNaI-41" value="" style="endArrow=none;html=1;rounded=0;exitX=0;exitY=0;exitDx=0;exitDy=0;entryX=1;entryY=1;entryDx=0;entryDy=0;" parent="1" source="92onyzxcngeXEMsaiNaI-24" target="92onyzxcngeXEMsaiNaI-37" edge="1">
          <mxGeometry width="50" height="50" relative="1" as="geometry">
            <mxPoint x="70" y="225" as="sourcePoint" />
            <mxPoint x="20" y="225" as="targetPoint" />
          </mxGeometry>
        </mxCell>
        <mxCell id="92onyzxcngeXEMsaiNaI-42" value="City" style="ellipse;whiteSpace=wrap;html=1;" parent="1" vertex="1">
          <mxGeometry x="-70" y="270" width="80" height="50" as="geometry" />
        </mxCell>
        <mxCell id="92onyzxcngeXEMsaiNaI-43" value="Country" style="ellipse;whiteSpace=wrap;html=1;" parent="1" vertex="1">
          <mxGeometry x="-20" y="340" width="80" height="50" as="geometry" />
        </mxCell>
        <mxCell id="92onyzxcngeXEMsaiNaI-45" value="" style="endArrow=none;html=1;rounded=0;exitX=0;exitY=1;exitDx=0;exitDy=0;entryX=1;entryY=0;entryDx=0;entryDy=0;" parent="1" source="92onyzxcngeXEMsaiNaI-27" target="92onyzxcngeXEMsaiNaI-43" edge="1">
          <mxGeometry width="50" height="50" relative="1" as="geometry">
            <mxPoint x="420" y="370" as="sourcePoint" />
            <mxPoint x="470" y="320" as="targetPoint" />
          </mxGeometry>
        </mxCell>
        <mxCell id="92onyzxcngeXEMsaiNaI-46" value="" style="endArrow=none;html=1;rounded=0;exitX=0;exitY=0.5;exitDx=0;exitDy=0;entryX=1;entryY=0.5;entryDx=0;entryDy=0;" parent="1" source="92onyzxcngeXEMsaiNaI-27" target="92onyzxcngeXEMsaiNaI-42" edge="1">
          <mxGeometry width="50" height="50" relative="1" as="geometry">
            <mxPoint x="420" y="370" as="sourcePoint" />
            <mxPoint x="470" y="320" as="targetPoint" />
          </mxGeometry>
        </mxCell>
        <mxCell id="92onyzxcngeXEMsaiNaI-47" value="Friends" style="rounded=0;whiteSpace=wrap;html=1;" parent="1" vertex="1">
          <mxGeometry x="470" y="550" width="120" height="60" as="geometry" />
        </mxCell>
        <mxCell id="92onyzxcngeXEMsaiNaI-49" value="Registration Date" style="ellipse;whiteSpace=wrap;html=1;" parent="1" vertex="1">
          <mxGeometry x="90" y="340" width="80" height="50" as="geometry" />
        </mxCell>
        <mxCell id="92onyzxcngeXEMsaiNaI-50" value="" style="endArrow=none;html=1;rounded=0;exitX=0;exitY=1;exitDx=0;exitDy=0;entryX=1;entryY=0;entryDx=0;entryDy=0;" parent="1" source="92onyzxcngeXEMsaiNaI-21" target="92onyzxcngeXEMsaiNaI-49" edge="1">
          <mxGeometry width="50" height="50" relative="1" as="geometry">
            <mxPoint x="420" y="350" as="sourcePoint" />
            <mxPoint x="470" y="300" as="targetPoint" />
          </mxGeometry>
        </mxCell>
        <mxCell id="92onyzxcngeXEMsaiNaI-51" value="FriendshipID" style="ellipse;whiteSpace=wrap;html=1;" parent="1" vertex="1">
          <mxGeometry x="440" y="470" width="80" height="50" as="geometry" />
        </mxCell>
        <mxCell id="92onyzxcngeXEMsaiNaI-52" value="UserID2" style="ellipse;whiteSpace=wrap;html=1;" parent="1" vertex="1">
          <mxGeometry x="640" y="610" width="80" height="50" as="geometry" />
        </mxCell>
        <mxCell id="92onyzxcngeXEMsaiNaI-53" value="UserID1" style="ellipse;whiteSpace=wrap;html=1;" parent="1" vertex="1">
          <mxGeometry x="540" y="470" width="80" height="50" as="geometry" />
        </mxCell>
        <mxCell id="92onyzxcngeXEMsaiNaI-54" value="Status" style="ellipse;whiteSpace=wrap;html=1;" parent="1" vertex="1">
          <mxGeometry x="640" y="470" width="80" height="50" as="geometry" />
        </mxCell>
        <mxCell id="92onyzxcngeXEMsaiNaI-56" value="Timestamp" style="ellipse;whiteSpace=wrap;html=1;" parent="1" vertex="1">
          <mxGeometry x="640" y="540" width="80" height="50" as="geometry" />
        </mxCell>
        <mxCell id="92onyzxcngeXEMsaiNaI-57" value="" style="endArrow=none;html=1;rounded=0;exitX=0.25;exitY=0;exitDx=0;exitDy=0;entryX=0.5;entryY=1;entryDx=0;entryDy=0;" parent="1" source="92onyzxcngeXEMsaiNaI-47" target="92onyzxcngeXEMsaiNaI-51" edge="1">
          <mxGeometry width="50" height="50" relative="1" as="geometry">
            <mxPoint x="460" y="560" as="sourcePoint" />
            <mxPoint x="510" y="510" as="targetPoint" />
          </mxGeometry>
        </mxCell>
        <mxCell id="92onyzxcngeXEMsaiNaI-58" value="" style="endArrow=none;html=1;rounded=0;exitX=0.5;exitY=0;exitDx=0;exitDy=0;entryX=0.5;entryY=1;entryDx=0;entryDy=0;" parent="1" source="92onyzxcngeXEMsaiNaI-47" target="92onyzxcngeXEMsaiNaI-53" edge="1">
          <mxGeometry width="50" height="50" relative="1" as="geometry">
            <mxPoint x="460" y="560" as="sourcePoint" />
            <mxPoint x="510" y="510" as="targetPoint" />
          </mxGeometry>
        </mxCell>
        <mxCell id="92onyzxcngeXEMsaiNaI-59" value="" style="endArrow=none;html=1;rounded=0;exitX=1;exitY=0;exitDx=0;exitDy=0;entryX=0;entryY=1;entryDx=0;entryDy=0;" parent="1" source="92onyzxcngeXEMsaiNaI-47" target="92onyzxcngeXEMsaiNaI-54" edge="1">
          <mxGeometry width="50" height="50" relative="1" as="geometry">
            <mxPoint x="460" y="560" as="sourcePoint" />
            <mxPoint x="510" y="510" as="targetPoint" />
          </mxGeometry>
        </mxCell>
        <mxCell id="92onyzxcngeXEMsaiNaI-60" value="" style="endArrow=none;html=1;rounded=0;exitX=1;exitY=0.5;exitDx=0;exitDy=0;entryX=0;entryY=0.5;entryDx=0;entryDy=0;" parent="1" source="92onyzxcngeXEMsaiNaI-47" target="92onyzxcngeXEMsaiNaI-56" edge="1">
          <mxGeometry width="50" height="50" relative="1" as="geometry">
            <mxPoint x="460" y="560" as="sourcePoint" />
            <mxPoint x="510" y="510" as="targetPoint" />
          </mxGeometry>
        </mxCell>
        <mxCell id="92onyzxcngeXEMsaiNaI-61" value="" style="endArrow=none;html=1;rounded=0;exitX=1;exitY=1;exitDx=0;exitDy=0;entryX=0;entryY=0.5;entryDx=0;entryDy=0;" parent="1" source="92onyzxcngeXEMsaiNaI-47" target="92onyzxcngeXEMsaiNaI-52" edge="1">
          <mxGeometry width="50" height="50" relative="1" as="geometry">
            <mxPoint x="460" y="560" as="sourcePoint" />
            <mxPoint x="510" y="510" as="targetPoint" />
          </mxGeometry>
        </mxCell>
        <mxCell id="92onyzxcngeXEMsaiNaI-64" value="Post" style="rounded=0;whiteSpace=wrap;html=1;" parent="1" vertex="1">
          <mxGeometry x="-135" y="550" width="120" height="60" as="geometry" />
        </mxCell>
        <mxCell id="92onyzxcngeXEMsaiNaI-65" value="PostID" style="ellipse;whiteSpace=wrap;html=1;" parent="1" vertex="1">
          <mxGeometry x="-180" y="470" width="80" height="50" as="geometry" />
        </mxCell>
        <mxCell id="92onyzxcngeXEMsaiNaI-67" value="UserID" style="ellipse;whiteSpace=wrap;html=1;" parent="1" vertex="1">
          <mxGeometry x="-80" y="470" width="80" height="50" as="geometry" />
        </mxCell>
        <mxCell id="92onyzxcngeXEMsaiNaI-68" value="Content" style="ellipse;whiteSpace=wrap;html=1;" parent="1" vertex="1">
          <mxGeometry x="20" y="480" width="80" height="50" as="geometry" />
        </mxCell>
        <mxCell id="92onyzxcngeXEMsaiNaI-71" value="" style="endArrow=none;html=1;rounded=0;exitX=0;exitY=0;exitDx=0;exitDy=0;entryX=0.5;entryY=1;entryDx=0;entryDy=0;" parent="1" source="92onyzxcngeXEMsaiNaI-64" target="92onyzxcngeXEMsaiNaI-65" edge="1">
          <mxGeometry width="50" height="50" relative="1" as="geometry">
            <mxPoint x="-150" y="550" as="sourcePoint" />
            <mxPoint x="-100" y="500" as="targetPoint" />
          </mxGeometry>
        </mxCell>
        <mxCell id="92onyzxcngeXEMsaiNaI-72" value="" style="endArrow=none;html=1;rounded=0;exitX=0.5;exitY=0;exitDx=0;exitDy=0;entryX=0.5;entryY=1;entryDx=0;entryDy=0;" parent="1" source="92onyzxcngeXEMsaiNaI-64" target="92onyzxcngeXEMsaiNaI-67" edge="1">
          <mxGeometry width="50" height="50" relative="1" as="geometry">
            <mxPoint x="-120" y="550" as="sourcePoint" />
            <mxPoint x="-70" y="500" as="targetPoint" />
          </mxGeometry>
        </mxCell>
        <mxCell id="92onyzxcngeXEMsaiNaI-73" value="" style="endArrow=none;html=1;rounded=0;exitX=0.945;exitY=0;exitDx=0;exitDy=0;exitPerimeter=0;entryX=0;entryY=1;entryDx=0;entryDy=0;" parent="1" source="92onyzxcngeXEMsaiNaI-64" target="92onyzxcngeXEMsaiNaI-68" edge="1">
          <mxGeometry width="50" height="50" relative="1" as="geometry">
            <mxPoint x="-150" y="550" as="sourcePoint" />
            <mxPoint x="-100" y="500" as="targetPoint" />
          </mxGeometry>
        </mxCell>
        <mxCell id="92onyzxcngeXEMsaiNaI-75" value="" style="endArrow=ERoneToMany;html=1;rounded=0;startArrow=ERone;startFill=0;endFill=0;exitX=1;exitY=0.75;exitDx=0;exitDy=0;entryX=0.5;entryY=0;entryDx=0;entryDy=0;" parent="1" source="92onyzxcngeXEMsaiNaI-64" target="92onyzxcngeXEMsaiNaI-76" edge="1">
          <mxGeometry width="50" height="50" relative="1" as="geometry">
            <mxPoint x="60" y="620" as="sourcePoint" />
            <mxPoint x="110" y="570" as="targetPoint" />
            <Array as="points">
              <mxPoint x="45" y="595" />
            </Array>
          </mxGeometry>
        </mxCell>
        <mxCell id="92onyzxcngeXEMsaiNaI-76" value="Comment" style="rounded=0;whiteSpace=wrap;html=1;" parent="1" vertex="1">
          <mxGeometry x="-15" y="660" width="120" height="60" as="geometry" />
        </mxCell>
        <mxCell id="92onyzxcngeXEMsaiNaI-77" value="Like" style="rounded=0;whiteSpace=wrap;html=1;" parent="1" vertex="1">
          <mxGeometry x="-255" y="660" width="120" height="60" as="geometry" />
        </mxCell>
        <mxCell id="92onyzxcngeXEMsaiNaI-78" value="" style="endArrow=ERoneToMany;html=1;rounded=0;startArrow=ERone;startFill=0;endFill=0;exitX=0;exitY=0.75;exitDx=0;exitDy=0;entryX=0.5;entryY=0;entryDx=0;entryDy=0;" parent="1" source="92onyzxcngeXEMsaiNaI-64" target="92onyzxcngeXEMsaiNaI-77" edge="1">
          <mxGeometry width="50" height="50" relative="1" as="geometry">
            <mxPoint x="-200" y="640" as="sourcePoint" />
            <mxPoint x="-150" y="590" as="targetPoint" />
            <Array as="points">
              <mxPoint x="-195" y="595" />
            </Array>
          </mxGeometry>
        </mxCell>
        <mxCell id="92onyzxcngeXEMsaiNaI-81" value="PostID" style="ellipse;whiteSpace=wrap;html=1;" parent="1" vertex="1">
          <mxGeometry x="-360" y="750" width="80" height="50" as="geometry" />
        </mxCell>
        <mxCell id="92onyzxcngeXEMsaiNaI-82" value="UserID" style="ellipse;whiteSpace=wrap;html=1;" parent="1" vertex="1">
          <mxGeometry x="-260" y="750" width="80" height="50" as="geometry" />
        </mxCell>
        <mxCell id="92onyzxcngeXEMsaiNaI-83" value="LikeID" style="ellipse;whiteSpace=wrap;html=1;" parent="1" vertex="1">
          <mxGeometry x="-160" y="750" width="80" height="50" as="geometry" />
        </mxCell>
        <mxCell id="92onyzxcngeXEMsaiNaI-84" value="PostID" style="ellipse;whiteSpace=wrap;html=1;" parent="1" vertex="1">
          <mxGeometry x="-60" y="770" width="80" height="50" as="geometry" />
        </mxCell>
        <mxCell id="92onyzxcngeXEMsaiNaI-85" value="UserID" style="ellipse;whiteSpace=wrap;html=1;" parent="1" vertex="1">
          <mxGeometry x="40" y="770" width="80" height="50" as="geometry" />
        </mxCell>
        <mxCell id="92onyzxcngeXEMsaiNaI-86" value="CommentID" style="ellipse;whiteSpace=wrap;html=1;" parent="1" vertex="1">
          <mxGeometry x="150" y="770" width="80" height="50" as="geometry" />
        </mxCell>
        <mxCell id="92onyzxcngeXEMsaiNaI-87" value="Content" style="ellipse;whiteSpace=wrap;html=1;" parent="1" vertex="1">
          <mxGeometry x="170" y="700" width="80" height="50" as="geometry" />
        </mxCell>
        <mxCell id="92onyzxcngeXEMsaiNaI-88" value="" style="endArrow=none;html=1;rounded=0;exitX=1;exitY=0.5;exitDx=0;exitDy=0;entryX=0;entryY=0.5;entryDx=0;entryDy=0;" parent="1" source="92onyzxcngeXEMsaiNaI-76" target="92onyzxcngeXEMsaiNaI-87" edge="1">
          <mxGeometry width="50" height="50" relative="1" as="geometry">
            <mxPoint x="-150" y="780" as="sourcePoint" />
            <mxPoint x="-100" y="730" as="targetPoint" />
          </mxGeometry>
        </mxCell>
        <mxCell id="92onyzxcngeXEMsaiNaI-89" value="" style="endArrow=none;html=1;rounded=0;entryX=0.75;entryY=1;entryDx=0;entryDy=0;exitX=0.5;exitY=0;exitDx=0;exitDy=0;" parent="1" source="92onyzxcngeXEMsaiNaI-83" target="92onyzxcngeXEMsaiNaI-77" edge="1">
          <mxGeometry width="50" height="50" relative="1" as="geometry">
            <mxPoint x="-150" y="780" as="sourcePoint" />
            <mxPoint x="-100" y="730" as="targetPoint" />
          </mxGeometry>
        </mxCell>
        <mxCell id="92onyzxcngeXEMsaiNaI-90" value="" style="endArrow=none;html=1;rounded=0;entryX=0.5;entryY=1;entryDx=0;entryDy=0;exitX=0.5;exitY=0;exitDx=0;exitDy=0;" parent="1" source="92onyzxcngeXEMsaiNaI-82" target="92onyzxcngeXEMsaiNaI-77" edge="1">
          <mxGeometry width="50" height="50" relative="1" as="geometry">
            <mxPoint x="-140" y="790" as="sourcePoint" />
            <mxPoint x="-90" y="740" as="targetPoint" />
          </mxGeometry>
        </mxCell>
        <mxCell id="92onyzxcngeXEMsaiNaI-91" value="" style="endArrow=none;html=1;rounded=0;entryX=0;entryY=1;entryDx=0;entryDy=0;exitX=1;exitY=0;exitDx=0;exitDy=0;" parent="1" source="92onyzxcngeXEMsaiNaI-81" target="92onyzxcngeXEMsaiNaI-77" edge="1">
          <mxGeometry width="50" height="50" relative="1" as="geometry">
            <mxPoint x="-130" y="800" as="sourcePoint" />
            <mxPoint x="-80" y="750" as="targetPoint" />
          </mxGeometry>
        </mxCell>
        <mxCell id="92onyzxcngeXEMsaiNaI-94" value="" style="endArrow=none;html=1;rounded=0;entryX=0.25;entryY=1;entryDx=0;entryDy=0;exitX=0.5;exitY=0;exitDx=0;exitDy=0;" parent="1" target="92onyzxcngeXEMsaiNaI-76" edge="1" source="92onyzxcngeXEMsaiNaI-84">
          <mxGeometry width="50" height="50" relative="1" as="geometry">
            <mxPoint x="-10" y="750" as="sourcePoint" />
            <mxPoint x="-50" y="800" as="targetPoint" />
          </mxGeometry>
        </mxCell>
        <mxCell id="92onyzxcngeXEMsaiNaI-95" value="" style="endArrow=none;html=1;rounded=0;entryX=0.75;entryY=1;entryDx=0;entryDy=0;exitX=0.5;exitY=0;exitDx=0;exitDy=0;" parent="1" source="92onyzxcngeXEMsaiNaI-85" target="92onyzxcngeXEMsaiNaI-76" edge="1">
          <mxGeometry width="50" height="50" relative="1" as="geometry">
            <mxPoint x="-80" y="870" as="sourcePoint" />
            <mxPoint x="-30" y="820" as="targetPoint" />
          </mxGeometry>
        </mxCell>
        <mxCell id="92onyzxcngeXEMsaiNaI-96" value="" style="endArrow=none;html=1;rounded=0;entryX=1;entryY=1;entryDx=0;entryDy=0;exitX=0;exitY=0;exitDx=0;exitDy=0;" parent="1" source="92onyzxcngeXEMsaiNaI-86" target="92onyzxcngeXEMsaiNaI-76" edge="1">
          <mxGeometry width="50" height="50" relative="1" as="geometry">
            <mxPoint x="-80" y="850" as="sourcePoint" />
            <mxPoint x="-30" y="800" as="targetPoint" />
          </mxGeometry>
        </mxCell>
        <mxCell id="92onyzxcngeXEMsaiNaI-97" value="" style="endArrow=ERoneToMany;html=1;rounded=0;startArrow=ERone;startFill=0;endFill=0;exitX=0.25;exitY=1;exitDx=0;exitDy=0;entryX=1;entryY=0.25;entryDx=0;entryDy=0;" parent="1" source="92onyzxcngeXEMsaiNaI-21" target="92onyzxcngeXEMsaiNaI-64" edge="1">
          <mxGeometry width="50" height="50" relative="1" as="geometry">
            <mxPoint x="220" y="485" as="sourcePoint" />
            <mxPoint x="280" y="550" as="targetPoint" />
            <Array as="points">
              <mxPoint x="250" y="565" />
            </Array>
          </mxGeometry>
        </mxCell>
        <mxCell id="92onyzxcngeXEMsaiNaI-98" value="" style="endArrow=ERoneToMany;html=1;rounded=0;startArrow=ERone;startFill=0;endFill=0;exitX=0.75;exitY=1;exitDx=0;exitDy=0;entryX=0.013;entryY=0.64;entryDx=0;entryDy=0;entryPerimeter=0;" parent="1" source="92onyzxcngeXEMsaiNaI-21" target="92onyzxcngeXEMsaiNaI-47" edge="1">
          <mxGeometry width="50" height="50" relative="1" as="geometry">
            <mxPoint x="312.5" y="365" as="sourcePoint" />
            <mxPoint x="47.5" y="590" as="targetPoint" />
            <Array as="points">
              <mxPoint x="312.5" y="590" />
            </Array>
          </mxGeometry>
        </mxCell>
        <mxCell id="TxlmlGTOWyAvO69u-Yeh-1" value="PostReport" style="rounded=0;whiteSpace=wrap;html=1;" vertex="1" parent="1">
          <mxGeometry x="-410" y="550" width="120" height="60" as="geometry" />
        </mxCell>
        <mxCell id="TxlmlGTOWyAvO69u-Yeh-2" value="PostID" style="ellipse;whiteSpace=wrap;html=1;" vertex="1" parent="1">
          <mxGeometry x="-470" y="460" width="80" height="50" as="geometry" />
        </mxCell>
        <mxCell id="TxlmlGTOWyAvO69u-Yeh-3" value="ReportCount" style="ellipse;whiteSpace=wrap;html=1;" vertex="1" parent="1">
          <mxGeometry x="-310" y="460" width="80" height="50" as="geometry" />
        </mxCell>
        <mxCell id="TxlmlGTOWyAvO69u-Yeh-4" value="" style="endArrow=none;html=1;rounded=0;entryX=0.5;entryY=1;entryDx=0;entryDy=0;exitX=0.25;exitY=0;exitDx=0;exitDy=0;" edge="1" parent="1" source="TxlmlGTOWyAvO69u-Yeh-1" target="TxlmlGTOWyAvO69u-Yeh-2">
          <mxGeometry width="50" height="50" relative="1" as="geometry">
            <mxPoint x="30" y="540" as="sourcePoint" />
            <mxPoint x="80" y="490" as="targetPoint" />
          </mxGeometry>
        </mxCell>
        <mxCell id="TxlmlGTOWyAvO69u-Yeh-5" value="" style="endArrow=none;html=1;rounded=0;entryX=0.5;entryY=1;entryDx=0;entryDy=0;exitX=0.75;exitY=0;exitDx=0;exitDy=0;" edge="1" parent="1" source="TxlmlGTOWyAvO69u-Yeh-1" target="TxlmlGTOWyAvO69u-Yeh-3">
          <mxGeometry width="50" height="50" relative="1" as="geometry">
            <mxPoint x="30" y="540" as="sourcePoint" />
            <mxPoint x="80" y="490" as="targetPoint" />
          </mxGeometry>
        </mxCell>
        <mxCell id="TxlmlGTOWyAvO69u-Yeh-6" value="" style="endArrow=ERoneToMany;html=1;rounded=0;startArrow=ERone;startFill=0;endFill=0;exitX=0;exitY=0.5;exitDx=0;exitDy=0;entryX=1;entryY=0.5;entryDx=0;entryDy=0;" edge="1" parent="1" source="92onyzxcngeXEMsaiNaI-64" target="TxlmlGTOWyAvO69u-Yeh-1">
          <mxGeometry width="50" height="50" relative="1" as="geometry">
            <mxPoint x="-125" y="605" as="sourcePoint" />
            <mxPoint x="-185" y="670" as="targetPoint" />
            <Array as="points" />
          </mxGeometry>
        </mxCell>
        <mxCell id="TxlmlGTOWyAvO69u-Yeh-7" value="CommentReport" style="rounded=0;whiteSpace=wrap;html=1;" vertex="1" parent="1">
          <mxGeometry x="270" y="650" width="120" height="60" as="geometry" />
        </mxCell>
        <mxCell id="TxlmlGTOWyAvO69u-Yeh-8" value="" style="endArrow=ERoneToMany;html=1;rounded=0;startArrow=ERone;startFill=0;endFill=0;exitX=1;exitY=0.25;exitDx=0;exitDy=0;entryX=0;entryY=0.5;entryDx=0;entryDy=0;" edge="1" parent="1" source="92onyzxcngeXEMsaiNaI-76" target="TxlmlGTOWyAvO69u-Yeh-7">
          <mxGeometry width="50" height="50" relative="1" as="geometry">
            <mxPoint x="150" y="630" as="sourcePoint" />
            <mxPoint x="210" y="695" as="targetPoint" />
            <Array as="points" />
          </mxGeometry>
        </mxCell>
        <mxCell id="TxlmlGTOWyAvO69u-Yeh-9" value="" style="endArrow=none;html=1;rounded=0;exitX=0.25;exitY=1;exitDx=0;exitDy=0;" edge="1" parent="1" source="TxlmlGTOWyAvO69u-Yeh-7">
          <mxGeometry width="50" height="50" relative="1" as="geometry">
            <mxPoint x="80" y="680" as="sourcePoint" />
            <mxPoint x="300" y="760" as="targetPoint" />
          </mxGeometry>
        </mxCell>
        <mxCell id="TxlmlGTOWyAvO69u-Yeh-10" value="PostID" style="ellipse;whiteSpace=wrap;html=1;" vertex="1" parent="1">
          <mxGeometry x="260" y="760" width="80" height="50" as="geometry" />
        </mxCell>
        <mxCell id="TxlmlGTOWyAvO69u-Yeh-11" value="" style="endArrow=none;html=1;rounded=0;exitX=0.75;exitY=1;exitDx=0;exitDy=0;" edge="1" parent="1" source="TxlmlGTOWyAvO69u-Yeh-7">
          <mxGeometry width="50" height="50" relative="1" as="geometry">
            <mxPoint x="80" y="680" as="sourcePoint" />
            <mxPoint x="400" y="760" as="targetPoint" />
          </mxGeometry>
        </mxCell>
        <mxCell id="TxlmlGTOWyAvO69u-Yeh-12" value="ReportCount" style="ellipse;whiteSpace=wrap;html=1;" vertex="1" parent="1">
          <mxGeometry x="370" y="760" width="80" height="50" as="geometry" />
        </mxCell>
        <mxCell id="TxlmlGTOWyAvO69u-Yeh-13" value="Admin" style="rounded=0;whiteSpace=wrap;html=1;" vertex="1" parent="1">
          <mxGeometry x="670" y="280" width="120" height="60" as="geometry" />
        </mxCell>
        <mxCell id="TxlmlGTOWyAvO69u-Yeh-14" value="Admin&lt;br&gt;Password" style="ellipse;whiteSpace=wrap;html=1;" vertex="1" parent="1">
          <mxGeometry x="760" y="200" width="80" height="50" as="geometry" />
        </mxCell>
        <mxCell id="TxlmlGTOWyAvO69u-Yeh-15" value="AdminID" style="ellipse;whiteSpace=wrap;html=1;" vertex="1" parent="1">
          <mxGeometry x="630" y="200" width="80" height="50" as="geometry" />
        </mxCell>
        <mxCell id="TxlmlGTOWyAvO69u-Yeh-16" value="Admin&lt;br&gt;Username" style="ellipse;whiteSpace=wrap;html=1;" vertex="1" parent="1">
          <mxGeometry x="540" y="270" width="80" height="50" as="geometry" />
        </mxCell>
        <mxCell id="TxlmlGTOWyAvO69u-Yeh-18" value="" style="endArrow=none;html=1;rounded=0;exitX=0;exitY=0.5;exitDx=0;exitDy=0;entryX=1;entryY=0.5;entryDx=0;entryDy=0;" edge="1" parent="1" source="TxlmlGTOWyAvO69u-Yeh-13" target="TxlmlGTOWyAvO69u-Yeh-16">
          <mxGeometry width="50" height="50" relative="1" as="geometry">
            <mxPoint x="640" y="400" as="sourcePoint" />
            <mxPoint x="690" y="350" as="targetPoint" />
          </mxGeometry>
        </mxCell>
        <mxCell id="TxlmlGTOWyAvO69u-Yeh-19" value="" style="endArrow=none;html=1;rounded=0;exitX=0.25;exitY=0;exitDx=0;exitDy=0;entryX=0.5;entryY=1;entryDx=0;entryDy=0;" edge="1" parent="1" source="TxlmlGTOWyAvO69u-Yeh-13" target="TxlmlGTOWyAvO69u-Yeh-15">
          <mxGeometry width="50" height="50" relative="1" as="geometry">
            <mxPoint x="640" y="400" as="sourcePoint" />
            <mxPoint x="690" y="350" as="targetPoint" />
          </mxGeometry>
        </mxCell>
        <mxCell id="TxlmlGTOWyAvO69u-Yeh-20" value="" style="endArrow=none;html=1;rounded=0;exitX=0.75;exitY=0;exitDx=0;exitDy=0;entryX=0.5;entryY=1;entryDx=0;entryDy=0;" edge="1" parent="1" source="TxlmlGTOWyAvO69u-Yeh-13" target="TxlmlGTOWyAvO69u-Yeh-14">
          <mxGeometry width="50" height="50" relative="1" as="geometry">
            <mxPoint x="640" y="400" as="sourcePoint" />
            <mxPoint x="690" y="350" as="targetPoint" />
          </mxGeometry>
        </mxCell>
      </root>
    </mxGraphModel>
  </diagram>
</mxfile>
